<svg width="40" height="40" viewBox="0 0 40 40" fill="none" xmlns="http://www.w3.org/2000/svg">
<path d="M15.1998 22.64C13.9038 25.184 12.5118 28.208 10.9278 32.144C10.7358 32.624 10.4958 32.672 10.1598 32.336C9.48781 31.616 9.00781 30.176 9.72781 27.584C10.9278 23.216 15.4398 14.096 19.6638 7.472C18.0318 7.328 17.1678 6.608 16.5918 5.552C16.3518 5.072 16.4958 4.832 17.1198 4.736C21.1518 4.256 24.7518 2.288 27.9678 2.144C30.4158 2.048 32.5278 2.768 33.6798 6.032C34.6878 8.912 34.0158 11.84 32.1918 14.288C29.5998 17.744 24.4158 20.768 19.0878 22.016C20.9118 24.272 22.6398 26.576 23.6478 28.592C24.3198 29.888 24.5118 31.52 23.8878 32.48C23.6478 32.864 23.4078 33.008 23.1198 32.576C19.9518 28.256 17.4558 25.136 15.1998 22.64ZM22.5918 7.184C22.5918 8.528 22.0638 10.208 20.7678 12.608C19.4718 14.912 18.2718 16.928 16.9758 19.28C27.5838 16.928 33.0078 9.92 31.6158 6.512C30.5598 3.824 25.7598 6.32 22.5918 7.184Z" fill="black"/>
</svg>
